<mxfile host="app.diagrams.net" modified="2020-12-03T14:05:58.138Z" agent="5.0 (Windows NT 10.0; Win64; x64) AppleWebKit/537.36 (KHTML, like Gecko) Chrome/87.0.4280.66 Safari/537.36" etag="8NqpqFdpqmhueYDuGbPc" version="13.10.6" type="github">
  <diagram id="J2d_FtWqm7WS0Ls9UWb-" name="Page-1">
    <mxGraphModel dx="2211" dy="773" grid="1" gridSize="10" guides="1" tooltips="1" connect="1" arrows="1" fold="1" page="1" pageScale="1" pageWidth="827" pageHeight="1169" math="0" shadow="0">
      <root>
        <mxCell id="0" />
        <mxCell id="1" parent="0" />
        <UserObject label="login" lucidchartObjectId="fbQT-d2.EWYb" id="KFkNTgGvSqk1yzewDqll-1">
          <mxCell style="html=1;overflow=block;whiteSpace=wrap;;whiteSpace=wrap;fontSize=13;fontColor=#333333;spacing=7;strokeColor=#5e5e5e;strokeOpacity=100;rounded=1;absoluteArcSize=1;arcSize=7;strokeWidth=2;" vertex="1" parent="1">
            <mxGeometry x="456" y="361" width="96" height="72" as="geometry" />
          </mxCell>
        </UserObject>
        <UserObject label="" lucidchartObjectId="whQTREHTOJAO" id="KFkNTgGvSqk1yzewDqll-2">
          <mxCell style="html=1;jettySize=18;whiteSpace=wrap;fontSize=11;strokeColor=#5E5E5E;rounded=1;arcSize=12;edgeStyle=orthogonalEdgeStyle;startArrow=none;;endArrow=block;endFill=1;;exitX=0.062;exitY=-0.012;exitPerimeter=0;" edge="1" parent="1" source="KFkNTgGvSqk1yzewDqll-1">
            <mxGeometry width="100" height="100" relative="1" as="geometry">
              <Array as="points" />
              <mxPoint x="408" y="288" as="targetPoint" />
            </mxGeometry>
          </mxCell>
        </UserObject>
        <UserObject label="log_id" lucidchartObjectId="JhQTmrIpe3hy" id="KFkNTgGvSqk1yzewDqll-3">
          <mxCell style="html=1;overflow=block;whiteSpace=wrap;rounded=1;arcSize=50;whiteSpace=wrap;fontSize=13;fontColor=#333333;spacing=3;strokeColor=#5e5e5e;strokeOpacity=100;strokeWidth=2;" vertex="1" parent="1">
            <mxGeometry x="336" y="240" width="96" height="48" as="geometry" />
          </mxCell>
        </UserObject>
        <UserObject label="" lucidchartObjectId="WhQTjps7sSPE" id="KFkNTgGvSqk1yzewDqll-4">
          <mxCell style="html=1;jettySize=18;whiteSpace=wrap;fontSize=11;strokeColor=#5E5E5E;rounded=1;arcSize=12;edgeStyle=orthogonalEdgeStyle;startArrow=none;;endArrow=block;endFill=1;;exitX=0.195;exitY=-0.012;exitPerimeter=0;entryX=0.5;entryY=1.019;entryPerimeter=0;" edge="1" parent="1" source="KFkNTgGvSqk1yzewDqll-1" target="KFkNTgGvSqk1yzewDqll-5">
            <mxGeometry width="100" height="100" relative="1" as="geometry">
              <Array as="points" />
            </mxGeometry>
          </mxCell>
        </UserObject>
        <UserObject label="log_user" lucidchartObjectId="riQTSWWi_3F7" id="KFkNTgGvSqk1yzewDqll-5">
          <mxCell style="html=1;overflow=block;whiteSpace=wrap;rounded=1;arcSize=50;whiteSpace=wrap;fontSize=13;fontColor=#333333;spacing=3;strokeColor=#5e5e5e;strokeOpacity=100;strokeWidth=2;" vertex="1" parent="1">
            <mxGeometry x="420" y="156" width="96" height="48" as="geometry" />
          </mxCell>
        </UserObject>
        <UserObject label="" lucidchartObjectId="MiQTOEj3ErW~" id="KFkNTgGvSqk1yzewDqll-6">
          <mxCell style="html=1;jettySize=18;whiteSpace=wrap;fontSize=11;strokeColor=#5E5E5E;rounded=1;arcSize=12;edgeStyle=orthogonalEdgeStyle;startArrow=none;;endArrow=block;endFill=1;;exitX=0.362;exitY=-0.012;exitPerimeter=0;entryX=0.5;entryY=1.019;entryPerimeter=0;" edge="1" parent="1" source="KFkNTgGvSqk1yzewDqll-1" target="KFkNTgGvSqk1yzewDqll-7">
            <mxGeometry width="100" height="100" relative="1" as="geometry">
              <Array as="points" />
            </mxGeometry>
          </mxCell>
        </UserObject>
        <UserObject label="log_password" lucidchartObjectId="3iQTAvU6.4RQ" id="KFkNTgGvSqk1yzewDqll-7">
          <mxCell style="html=1;overflow=block;whiteSpace=wrap;rounded=1;arcSize=50;whiteSpace=wrap;fontSize=13;fontColor=#333333;spacing=3;strokeColor=#5e5e5e;strokeOpacity=100;strokeWidth=2;" vertex="1" parent="1">
            <mxGeometry x="480" y="72" width="96" height="48" as="geometry" />
          </mxCell>
        </UserObject>
        <UserObject label="" lucidchartObjectId="QjQT9RnwUpkP" id="KFkNTgGvSqk1yzewDqll-8">
          <mxCell style="html=1;jettySize=18;whiteSpace=wrap;fontSize=11;strokeColor=#5E5E5E;rounded=1;arcSize=12;edgeStyle=orthogonalEdgeStyle;startArrow=none;;endArrow=block;endFill=1;;exitX=0.751;exitY=-0.012;exitPerimeter=0;entryX=0.5;entryY=1.019;entryPerimeter=0;" edge="1" parent="1" source="KFkNTgGvSqk1yzewDqll-1" target="KFkNTgGvSqk1yzewDqll-9">
            <mxGeometry width="100" height="100" relative="1" as="geometry">
              <Array as="points" />
            </mxGeometry>
          </mxCell>
        </UserObject>
        <UserObject label="log_name" lucidchartObjectId="hkQTp5f3-zRx" id="KFkNTgGvSqk1yzewDqll-9">
          <mxCell style="html=1;overflow=block;whiteSpace=wrap;rounded=1;arcSize=50;whiteSpace=wrap;fontSize=13;fontColor=#333333;spacing=3;strokeColor=#5e5e5e;strokeOpacity=100;strokeWidth=2;" vertex="1" parent="1">
            <mxGeometry x="540" y="228" width="96" height="48" as="geometry" />
          </mxCell>
        </UserObject>
        <UserObject label="" lucidchartObjectId="NkQTClHjl3v9" id="KFkNTgGvSqk1yzewDqll-10">
          <mxCell style="html=1;jettySize=18;whiteSpace=wrap;fontSize=11;strokeColor=#5E5E5E;rounded=1;arcSize=12;edgeStyle=orthogonalEdgeStyle;startArrow=none;;endArrow=block;endFill=1;;exitX=0.5;exitY=1.013;exitPerimeter=0;entryX=0.5;entryY=-0.009;entryPerimeter=0;" edge="1" parent="1" source="KFkNTgGvSqk1yzewDqll-1" target="KFkNTgGvSqk1yzewDqll-11">
            <mxGeometry width="100" height="100" relative="1" as="geometry">
              <Array as="points" />
            </mxGeometry>
          </mxCell>
        </UserObject>
        <UserObject label="has" lucidchartObjectId="4kQTOvvBNK3Z" id="KFkNTgGvSqk1yzewDqll-11">
          <mxCell style="points=[[0.5,1.009,0]];html=1;overflow=block;whiteSpace=wrap;;whiteSpace=wrap;fontSize=13;fontColor=#333333;spacing=3;strokeColor=#5e5e5e;strokeOpacity=100;rounded=1;absoluteArcSize=1;arcSize=7;strokeWidth=2;" vertex="1" parent="1">
            <mxGeometry x="456" y="624" width="96" height="96" as="geometry" />
          </mxCell>
        </UserObject>
        <UserObject label="" lucidchartObjectId="elQTLXWKqcaM" id="KFkNTgGvSqk1yzewDqll-12">
          <mxCell style="html=1;jettySize=18;whiteSpace=wrap;fontSize=11;strokeColor=#5E5E5E;rounded=1;arcSize=12;edgeStyle=orthogonalEdgeStyle;startArrow=none;;endArrow=block;endFill=1;;exitX=1.009;exitY=0.5;exitPerimeter=0;entryX=-0.009;entryY=0.5;entryPerimeter=0;" edge="1" parent="1" source="KFkNTgGvSqk1yzewDqll-13" target="KFkNTgGvSqk1yzewDqll-11">
            <mxGeometry width="100" height="100" relative="1" as="geometry">
              <Array as="points" />
            </mxGeometry>
          </mxCell>
        </UserObject>
        <UserObject label="permission" lucidchartObjectId="ElQT0MNzrewa" id="KFkNTgGvSqk1yzewDqll-13">
          <mxCell style="html=1;overflow=block;whiteSpace=wrap;;whiteSpace=wrap;fontSize=13;fontColor=#333333;spacing=7;strokeColor=#5e5e5e;strokeOpacity=100;rounded=1;absoluteArcSize=1;arcSize=7;strokeWidth=2;" vertex="1" parent="1">
            <mxGeometry x="120" y="624" width="96" height="72" as="geometry" />
          </mxCell>
        </UserObject>
        <UserObject label="" lucidchartObjectId="ZlQT4Uq~magS" id="KFkNTgGvSqk1yzewDqll-14">
          <mxCell style="html=1;jettySize=18;whiteSpace=wrap;fontSize=11;strokeColor=#5E5E5E;rounded=1;arcSize=12;edgeStyle=orthogonalEdgeStyle;startArrow=none;;endArrow=block;endFill=1;;exitX=0.874;exitY=-0.012;exitPerimeter=0;" edge="1" parent="1" source="KFkNTgGvSqk1yzewDqll-13">
            <mxGeometry width="100" height="100" relative="1" as="geometry">
              <Array as="points" />
              <mxPoint x="228" y="588" as="targetPoint" />
            </mxGeometry>
          </mxCell>
        </UserObject>
        <UserObject label="per_model" lucidchartObjectId=".oQTn.xeEju9" id="KFkNTgGvSqk1yzewDqll-15">
          <mxCell style="html=1;overflow=block;whiteSpace=wrap;rounded=1;arcSize=50;whiteSpace=wrap;fontSize=13;fontColor=#333333;spacing=3;strokeColor=#5e5e5e;strokeOpacity=100;strokeWidth=2;" vertex="1" parent="1">
            <mxGeometry x="216" y="540" width="96" height="48" as="geometry" />
          </mxCell>
        </UserObject>
        <UserObject label="" lucidchartObjectId="wpQTkw.XztXE" id="KFkNTgGvSqk1yzewDqll-16">
          <mxCell style="html=1;jettySize=18;whiteSpace=wrap;fontSize=11;strokeColor=#5E5E5E;rounded=1;arcSize=12;edgeStyle=orthogonalEdgeStyle;startArrow=none;;endArrow=block;endFill=1;;exitX=0.75;exitY=-0.012;exitPerimeter=0;" edge="1" parent="1" source="KFkNTgGvSqk1yzewDqll-13">
            <mxGeometry width="100" height="100" relative="1" as="geometry">
              <Array as="points" />
              <mxPoint x="192" y="492" as="targetPoint" />
            </mxGeometry>
          </mxCell>
        </UserObject>
        <UserObject label="per_name" lucidchartObjectId="MpQTUU0qr0ar" id="KFkNTgGvSqk1yzewDqll-17">
          <mxCell style="html=1;overflow=block;whiteSpace=wrap;rounded=1;arcSize=50;whiteSpace=wrap;fontSize=13;fontColor=#333333;spacing=3;strokeColor=#5e5e5e;strokeOpacity=100;strokeWidth=2;" vertex="1" parent="1">
            <mxGeometry x="168" y="456" width="96" height="48" as="geometry" />
          </mxCell>
        </UserObject>
        <UserObject label="" lucidchartObjectId="6pQTEtgnR_vM" id="KFkNTgGvSqk1yzewDqll-18">
          <mxCell style="html=1;jettySize=18;whiteSpace=wrap;fontSize=11;strokeColor=#5E5E5E;rounded=1;arcSize=12;edgeStyle=orthogonalEdgeStyle;startArrow=none;;endArrow=block;endFill=1;;exitX=0.5;exitY=-0.012;exitPerimeter=0;entryX=0.5;entryY=1.019;entryPerimeter=0;" edge="1" parent="1" source="KFkNTgGvSqk1yzewDqll-13" target="KFkNTgGvSqk1yzewDqll-19">
            <mxGeometry width="100" height="100" relative="1" as="geometry">
              <Array as="points" />
            </mxGeometry>
          </mxCell>
        </UserObject>
        <UserObject label="per_id" lucidchartObjectId="jqQT7rKKxiv0" id="KFkNTgGvSqk1yzewDqll-19">
          <mxCell style="html=1;overflow=block;whiteSpace=wrap;rounded=1;arcSize=50;whiteSpace=wrap;fontSize=13;fontColor=#333333;spacing=3;strokeColor=#5e5e5e;strokeOpacity=100;strokeWidth=2;" vertex="1" parent="1">
            <mxGeometry x="60" y="444" width="96" height="48" as="geometry" />
          </mxCell>
        </UserObject>
        <UserObject label="" lucidchartObjectId="KqQTQWmErRtL" id="KFkNTgGvSqk1yzewDqll-20">
          <mxCell style="html=1;jettySize=18;whiteSpace=wrap;fontSize=11;strokeColor=#5E5E5E;rounded=1;arcSize=12;edgeStyle=orthogonalEdgeStyle;startArrow=none;;endArrow=block;endFill=1;;exitX=0.003;exitY=0.01;exitPerimeter=0;entryX=1.009;entryY=0.5;entryPerimeter=0;" edge="1" parent="1" source="KFkNTgGvSqk1yzewDqll-13" target="KFkNTgGvSqk1yzewDqll-21">
            <mxGeometry width="100" height="100" relative="1" as="geometry">
              <Array as="points" />
            </mxGeometry>
          </mxCell>
        </UserObject>
        <UserObject label="role_id" lucidchartObjectId="WqQTloFHppXn" id="KFkNTgGvSqk1yzewDqll-21">
          <mxCell style="html=1;overflow=block;whiteSpace=wrap;rounded=1;arcSize=50;whiteSpace=wrap;fontSize=13;fontColor=#333333;spacing=3;strokeColor=#5e5e5e;strokeOpacity=100;strokeWidth=2;" vertex="1" parent="1">
            <mxGeometry x="-48" y="540" width="96" height="48" as="geometry" />
          </mxCell>
        </UserObject>
        <UserObject label="" lucidchartObjectId="DrQTOFylyjT3" id="KFkNTgGvSqk1yzewDqll-22">
          <mxCell style="html=1;jettySize=18;whiteSpace=wrap;fontSize=11;strokeColor=#5E5E5E;rounded=1;arcSize=12;edgeStyle=orthogonalEdgeStyle;startArrow=none;;endArrow=block;endFill=1;;exitX=0.5;exitY=1.013;exitPerimeter=0;entryX=0.5;entryY=0.006;entryPerimeter=0;" edge="1" parent="1" source="KFkNTgGvSqk1yzewDqll-13" target="KFkNTgGvSqk1yzewDqll-23">
            <mxGeometry width="100" height="100" relative="1" as="geometry">
              <Array as="points" />
            </mxGeometry>
          </mxCell>
        </UserObject>
        <UserObject label="gives" lucidchartObjectId="YrQTZOwj7Wmj" id="KFkNTgGvSqk1yzewDqll-23">
          <mxCell style="html=1;overflow=block;whiteSpace=wrap;rhombus;whiteSpace=wrap;fontSize=13;fontColor=#333333;spacing=3;strokeColor=#5e5e5e;strokeOpacity=100;rounded=1;absoluteArcSize=1;arcSize=7;strokeWidth=2;" vertex="1" parent="1">
            <mxGeometry x="72" y="756" width="96" height="72" as="geometry" />
          </mxCell>
        </UserObject>
        <UserObject label="" lucidchartObjectId="esQTmJPamqg7" id="KFkNTgGvSqk1yzewDqll-24">
          <mxCell style="html=1;jettySize=18;whiteSpace=wrap;fontSize=11;strokeColor=#5E5E5E;rounded=1;arcSize=12;edgeStyle=orthogonalEdgeStyle;startArrow=none;;endArrow=block;endFill=1;;exitX=0.5;exitY=0.994;exitPerimeter=0;entryX=0.5;entryY=-0.012;entryPerimeter=0;" edge="1" parent="1" source="KFkNTgGvSqk1yzewDqll-23" target="KFkNTgGvSqk1yzewDqll-25">
            <mxGeometry width="100" height="100" relative="1" as="geometry">
              <Array as="points" />
            </mxGeometry>
          </mxCell>
        </UserObject>
        <UserObject label="registratiosn" lucidchartObjectId="osQTvAW53~ol" id="KFkNTgGvSqk1yzewDqll-25">
          <mxCell style="html=1;overflow=block;whiteSpace=wrap;;whiteSpace=wrap;fontSize=13;fontColor=#333333;spacing=7;strokeColor=#5e5e5e;strokeOpacity=100;rounded=1;absoluteArcSize=1;arcSize=7;strokeWidth=2;" vertex="1" parent="1">
            <mxGeometry y="912" width="96" height="72" as="geometry" />
          </mxCell>
        </UserObject>
        <UserObject label="" lucidchartObjectId="NsQTAiu84TYZ" id="KFkNTgGvSqk1yzewDqll-26">
          <mxCell style="html=1;jettySize=18;whiteSpace=wrap;fontSize=11;strokeColor=#5E5E5E;rounded=1;arcSize=12;edgeStyle=orthogonalEdgeStyle;startArrow=none;;endArrow=block;endFill=1;;exitX=1.009;exitY=0.5;exitPerimeter=0;entryX=0.009;entryY=0.5;entryPerimeter=0;" edge="1" parent="1" source="KFkNTgGvSqk1yzewDqll-25" target="KFkNTgGvSqk1yzewDqll-27">
            <mxGeometry width="100" height="100" relative="1" as="geometry">
              <Array as="points" />
            </mxGeometry>
          </mxCell>
        </UserObject>
        <UserObject label="registratiosn  in" lucidchartObjectId="XsQTa_skkBgr" id="KFkNTgGvSqk1yzewDqll-27">
          <mxCell style="html=1;overflow=block;whiteSpace=wrap;rhombus;whiteSpace=wrap;fontSize=13;fontColor=#333333;spacing=3;strokeColor=#5e5e5e;strokeOpacity=100;rounded=1;absoluteArcSize=1;arcSize=7;strokeWidth=2;" vertex="1" parent="1">
            <mxGeometry x="276" y="912" width="96" height="72" as="geometry" />
          </mxCell>
        </UserObject>
        <UserObject label="" lucidchartObjectId="htQT8ji.IDpO" id="KFkNTgGvSqk1yzewDqll-28">
          <mxCell style="html=1;jettySize=18;whiteSpace=wrap;fontSize=11;strokeColor=#5E5E5E;rounded=1;arcSize=12;edgeStyle=orthogonalEdgeStyle;startArrow=none;;endArrow=block;endFill=1;;exitX=-0.009;exitY=0.167;exitPerimeter=0;entryX=1.009;entryY=0.5;entryPerimeter=0;" edge="1" parent="1" source="KFkNTgGvSqk1yzewDqll-25" target="KFkNTgGvSqk1yzewDqll-29">
            <mxGeometry width="100" height="100" relative="1" as="geometry">
              <Array as="points" />
            </mxGeometry>
          </mxCell>
        </UserObject>
        <UserObject label="registratiosn_id" lucidchartObjectId="ztQT9YKVYgCQ" id="KFkNTgGvSqk1yzewDqll-29">
          <mxCell style="html=1;overflow=block;whiteSpace=wrap;rounded=1;arcSize=50;whiteSpace=wrap;fontSize=13;fontColor=#333333;spacing=3;strokeColor=#5e5e5e;strokeOpacity=100;strokeWidth=2;" vertex="1" parent="1">
            <mxGeometry x="-156" y="876" width="96" height="48" as="geometry" />
          </mxCell>
        </UserObject>
        <UserObject label="" lucidchartObjectId="iuQTR~cf7c7D" id="KFkNTgGvSqk1yzewDqll-30">
          <mxCell style="html=1;jettySize=18;whiteSpace=wrap;fontSize=11;strokeColor=#5E5E5E;rounded=1;arcSize=12;edgeStyle=orthogonalEdgeStyle;startArrow=none;;endArrow=block;endFill=1;;exitX=-0.009;exitY=0.5;exitPerimeter=0;entryX=1.009;entryY=0.5;entryPerimeter=0;" edge="1" parent="1" source="KFkNTgGvSqk1yzewDqll-25" target="KFkNTgGvSqk1yzewDqll-31">
            <mxGeometry width="100" height="100" relative="1" as="geometry">
              <Array as="points" />
            </mxGeometry>
          </mxCell>
        </UserObject>
        <UserObject label="registratiosn_sub" lucidchartObjectId="suQTPRqYO4SC" id="KFkNTgGvSqk1yzewDqll-31">
          <mxCell style="html=1;overflow=block;whiteSpace=wrap;rounded=1;arcSize=50;whiteSpace=wrap;fontSize=13;fontColor=#333333;spacing=3;strokeColor=#5e5e5e;strokeOpacity=100;strokeWidth=2;" vertex="1" parent="1">
            <mxGeometry x="-144" y="936" width="96" height="48" as="geometry" />
          </mxCell>
        </UserObject>
        <UserObject label="" lucidchartObjectId="MuQTKN2gORgn" id="KFkNTgGvSqk1yzewDqll-32">
          <mxCell style="html=1;jettySize=18;whiteSpace=wrap;fontSize=11;strokeColor=#5E5E5E;rounded=1;arcSize=12;edgeStyle=orthogonalEdgeStyle;startArrow=none;;endArrow=block;endFill=1;;exitX=-0.003;exitY=0.981;exitPerimeter=0;" edge="1" parent="1" source="KFkNTgGvSqk1yzewDqll-25">
            <mxGeometry width="100" height="100" relative="1" as="geometry">
              <Array as="points" />
              <mxPoint x="-24" y="1020" as="targetPoint" />
            </mxGeometry>
          </mxCell>
        </UserObject>
        <UserObject label="registratiosn_user" lucidchartObjectId="XuQTb.25-TO5" id="KFkNTgGvSqk1yzewDqll-33">
          <mxCell style="html=1;overflow=block;whiteSpace=wrap;rounded=1;arcSize=50;whiteSpace=wrap;fontSize=13;fontColor=#333333;spacing=3;strokeColor=#5e5e5e;strokeOpacity=100;strokeWidth=2;" vertex="1" parent="1">
            <mxGeometry x="-96" y="1020" width="96" height="48" as="geometry" />
          </mxCell>
        </UserObject>
        <UserObject label="" lucidchartObjectId="bvQTOtxtwn~U" id="KFkNTgGvSqk1yzewDqll-34">
          <mxCell style="html=1;jettySize=18;whiteSpace=wrap;fontSize=11;strokeColor=#5E5E5E;rounded=1;arcSize=12;edgeStyle=orthogonalEdgeStyle;startArrow=none;;endArrow=block;endFill=1;;exitX=0.153;exitY=1.013;exitPerimeter=0;entryX=0.5;entryY=-0.019;entryPerimeter=0;" edge="1" parent="1" source="KFkNTgGvSqk1yzewDqll-25" target="KFkNTgGvSqk1yzewDqll-35">
            <mxGeometry width="100" height="100" relative="1" as="geometry">
              <Array as="points" />
            </mxGeometry>
          </mxCell>
        </UserObject>
        <UserObject label="registratiosn_passwoed" lucidchartObjectId="wvQTtQJ_OQ~p" id="KFkNTgGvSqk1yzewDqll-35">
          <mxCell style="html=1;overflow=block;whiteSpace=wrap;rounded=1;arcSize=50;whiteSpace=wrap;fontSize=13;fontColor=#333333;spacing=3;strokeColor=#5e5e5e;strokeOpacity=100;strokeWidth=2;" vertex="1" parent="1">
            <mxGeometry x="-48" y="1104" width="96" height="48" as="geometry" />
          </mxCell>
        </UserObject>
        <UserObject label="" lucidchartObjectId="3vQTU3bR9-W-" id="KFkNTgGvSqk1yzewDqll-36">
          <mxCell style="html=1;jettySize=18;whiteSpace=wrap;fontSize=11;strokeColor=#5E5E5E;rounded=1;arcSize=12;edgeStyle=orthogonalEdgeStyle;startArrow=none;;endArrow=block;endFill=1;;exitX=0.461;exitY=1.013;exitPerimeter=0;entryX=0.5;entryY=-0.019;entryPerimeter=0;" edge="1" parent="1" source="KFkNTgGvSqk1yzewDqll-25" target="KFkNTgGvSqk1yzewDqll-37">
            <mxGeometry width="100" height="100" relative="1" as="geometry">
              <Array as="points" />
            </mxGeometry>
          </mxCell>
        </UserObject>
        <UserObject label="registratiosn_student" lucidchartObjectId="~vQTHd6W1WJ1" id="KFkNTgGvSqk1yzewDqll-37">
          <mxCell style="html=1;overflow=block;whiteSpace=wrap;rounded=1;arcSize=50;whiteSpace=wrap;fontSize=13;fontColor=#333333;spacing=3;strokeColor=#5e5e5e;strokeOpacity=100;strokeWidth=2;" vertex="1" parent="1">
            <mxGeometry x="12" y="1176" width="96" height="48" as="geometry" />
          </mxCell>
        </UserObject>
        <UserObject label="" lucidchartObjectId="UwQTW-.7u7em" id="KFkNTgGvSqk1yzewDqll-38">
          <mxCell style="html=1;jettySize=18;whiteSpace=wrap;fontSize=11;strokeColor=#5E5E5E;rounded=1;arcSize=12;edgeStyle=orthogonalEdgeStyle;startArrow=none;;endArrow=block;endFill=1;;exitX=0.991;exitY=0.5;exitPerimeter=0;entryX=-0.009;entryY=0.5;entryPerimeter=0;" edge="1" parent="1" source="KFkNTgGvSqk1yzewDqll-27" target="KFkNTgGvSqk1yzewDqll-39">
            <mxGeometry width="100" height="100" relative="1" as="geometry">
              <Array as="points" />
            </mxGeometry>
          </mxCell>
        </UserObject>
        <UserObject label="student" lucidchartObjectId="ixQThAWbnhwm" id="KFkNTgGvSqk1yzewDqll-39">
          <mxCell style="html=1;overflow=block;whiteSpace=wrap;;whiteSpace=wrap;fontSize=13;fontColor=#333333;spacing=7;strokeColor=#5e5e5e;strokeOpacity=100;rounded=1;absoluteArcSize=1;arcSize=7;strokeWidth=2;" vertex="1" parent="1">
            <mxGeometry x="444" y="911" width="96" height="72" as="geometry" />
          </mxCell>
        </UserObject>
        <UserObject label="" lucidchartObjectId="uxQTuS.Y41sS" id="KFkNTgGvSqk1yzewDqll-40">
          <mxCell style="html=1;jettySize=18;whiteSpace=wrap;fontSize=11;strokeColor=#5E5E5E;rounded=1;arcSize=12;edgeStyle=orthogonalEdgeStyle;startArrow=none;;endArrow=block;endFill=1;;exitX=0.5;exitY=1.009;exitPerimeter=0;entryX=0.5;entryY=-0.012;entryPerimeter=0;" edge="1" parent="1" source="KFkNTgGvSqk1yzewDqll-11" target="KFkNTgGvSqk1yzewDqll-39">
            <mxGeometry width="100" height="100" relative="1" as="geometry">
              <Array as="points" />
            </mxGeometry>
          </mxCell>
        </UserObject>
        <UserObject label="" lucidchartObjectId="RxQTk66bcNMK" id="KFkNTgGvSqk1yzewDqll-41">
          <mxCell style="html=1;jettySize=18;whiteSpace=wrap;fontSize=11;strokeColor=#5E5E5E;rounded=1;arcSize=12;edgeStyle=orthogonalEdgeStyle;startArrow=none;;endArrow=block;endFill=1;;exitX=0.666;exitY=-0.012;exitPerimeter=0;entryX=0.5;entryY=1.019;entryPerimeter=0;" edge="1" parent="1" source="KFkNTgGvSqk1yzewDqll-39" target="KFkNTgGvSqk1yzewDqll-42">
            <mxGeometry width="100" height="100" relative="1" as="geometry">
              <Array as="points" />
            </mxGeometry>
          </mxCell>
        </UserObject>
        <UserObject label="st_id" lucidchartObjectId="8xQTcyF5DUVg" id="KFkNTgGvSqk1yzewDqll-42">
          <mxCell style="html=1;overflow=block;whiteSpace=wrap;rounded=1;arcSize=50;whiteSpace=wrap;fontSize=13;fontColor=#333333;spacing=3;strokeColor=#5e5e5e;strokeOpacity=100;strokeWidth=2;" vertex="1" parent="1">
            <mxGeometry x="528" y="744" width="96" height="48" as="geometry" />
          </mxCell>
        </UserObject>
        <UserObject label="" lucidchartObjectId="ByQTpff9KvNe" id="KFkNTgGvSqk1yzewDqll-43">
          <mxCell style="html=1;jettySize=18;whiteSpace=wrap;fontSize=11;strokeColor=#5E5E5E;rounded=1;arcSize=12;edgeStyle=orthogonalEdgeStyle;startArrow=none;;endArrow=block;endFill=1;;exitX=0.998;exitY=0.012;exitPerimeter=0;entryX=-0.009;entryY=0.5;entryPerimeter=0;" edge="1" parent="1" source="KFkNTgGvSqk1yzewDqll-39" target="KFkNTgGvSqk1yzewDqll-44">
            <mxGeometry width="100" height="100" relative="1" as="geometry">
              <Array as="points" />
            </mxGeometry>
          </mxCell>
        </UserObject>
        <UserObject label="st_name" lucidchartObjectId="KyQTW9-VmgZX" id="KFkNTgGvSqk1yzewDqll-44">
          <mxCell style="html=1;overflow=block;whiteSpace=wrap;rounded=1;arcSize=50;whiteSpace=wrap;fontSize=13;fontColor=#333333;spacing=3;strokeColor=#5e5e5e;strokeOpacity=100;strokeWidth=2;" vertex="1" parent="1">
            <mxGeometry x="636" y="792" width="96" height="48" as="geometry" />
          </mxCell>
        </UserObject>
        <UserObject label="" lucidchartObjectId="1yQTZiqiSDA." id="KFkNTgGvSqk1yzewDqll-45">
          <mxCell style="html=1;jettySize=18;whiteSpace=wrap;fontSize=11;strokeColor=#5E5E5E;rounded=1;arcSize=12;edgeStyle=orthogonalEdgeStyle;startArrow=none;;endArrow=block;endFill=1;;exitX=1.009;exitY=0.345;exitPerimeter=0;entryX=-0.009;entryY=0.5;entryPerimeter=0;" edge="1" parent="1" source="KFkNTgGvSqk1yzewDqll-39" target="KFkNTgGvSqk1yzewDqll-46">
            <mxGeometry width="100" height="100" relative="1" as="geometry">
              <Array as="points" />
            </mxGeometry>
          </mxCell>
        </UserObject>
        <UserObject label="st_pass" lucidchartObjectId="-yQTgNmx-6IW" id="KFkNTgGvSqk1yzewDqll-46">
          <mxCell style="html=1;overflow=block;whiteSpace=wrap;rounded=1;arcSize=50;whiteSpace=wrap;fontSize=13;fontColor=#333333;spacing=3;strokeColor=#5e5e5e;strokeOpacity=100;strokeWidth=2;" vertex="1" parent="1">
            <mxGeometry x="672" y="852" width="96" height="48" as="geometry" />
          </mxCell>
        </UserObject>
        <UserObject label="" lucidchartObjectId="nzQTzZkRypPM" id="KFkNTgGvSqk1yzewDqll-47">
          <mxCell style="html=1;jettySize=18;whiteSpace=wrap;fontSize=11;strokeColor=#5E5E5E;rounded=1;arcSize=12;edgeStyle=orthogonalEdgeStyle;startArrow=none;;endArrow=block;endFill=1;;exitX=1.009;exitY=0.5;exitPerimeter=0;entryX=-0.009;entryY=0.5;entryPerimeter=0;" edge="1" parent="1" source="KFkNTgGvSqk1yzewDqll-39" target="KFkNTgGvSqk1yzewDqll-48">
            <mxGeometry width="100" height="100" relative="1" as="geometry">
              <Array as="points" />
            </mxGeometry>
          </mxCell>
        </UserObject>
        <UserObject label="st_gmail" lucidchartObjectId="wzQTgkWRxPR6" id="KFkNTgGvSqk1yzewDqll-48">
          <mxCell style="html=1;overflow=block;whiteSpace=wrap;rounded=1;arcSize=50;whiteSpace=wrap;fontSize=13;fontColor=#333333;spacing=3;strokeColor=#5e5e5e;strokeOpacity=100;strokeWidth=2;" vertex="1" parent="1">
            <mxGeometry x="708" y="923" width="96" height="48" as="geometry" />
          </mxCell>
        </UserObject>
        <UserObject label="" lucidchartObjectId="uAQTf6PIBq86" id="KFkNTgGvSqk1yzewDqll-49">
          <mxCell style="html=1;jettySize=18;whiteSpace=wrap;fontSize=11;strokeColor=#5E5E5E;rounded=1;arcSize=12;edgeStyle=orthogonalEdgeStyle;startArrow=none;;endArrow=block;endFill=0;;exitX=0.99;exitY=1;exitPerimeter=0;entryX=-0.009;entryY=0.5;entryPerimeter=0;" edge="1" parent="1" source="KFkNTgGvSqk1yzewDqll-39" target="KFkNTgGvSqk1yzewDqll-51">
            <mxGeometry width="100" height="100" relative="1" as="geometry">
              <Array as="points" />
            </mxGeometry>
          </mxCell>
        </UserObject>
        <mxCell id="KFkNTgGvSqk1yzewDqll-82" style="edgeStyle=orthogonalEdgeStyle;rounded=0;orthogonalLoop=1;jettySize=auto;html=1;" edge="1" parent="1" source="KFkNTgGvSqk1yzewDqll-51" target="KFkNTgGvSqk1yzewDqll-81">
          <mxGeometry relative="1" as="geometry" />
        </mxCell>
        <UserObject label="give" lucidchartObjectId="0AQTvwH0xMl7" id="KFkNTgGvSqk1yzewDqll-51">
          <mxCell style="html=1;overflow=block;whiteSpace=wrap;;whiteSpace=wrap;fontSize=13;fontColor=#333333;spacing=7;strokeColor=#5e5e5e;strokeOpacity=100;rounded=1;absoluteArcSize=1;arcSize=7;strokeWidth=2;" vertex="1" parent="1">
            <mxGeometry x="912" y="792" width="96" height="72" as="geometry" />
          </mxCell>
        </UserObject>
        <UserObject label="user" lucidchartObjectId="HBQT3cw~XiMk" id="KFkNTgGvSqk1yzewDqll-52">
          <mxCell style="html=1;overflow=block;whiteSpace=wrap;;whiteSpace=wrap;fontSize=13;fontColor=#333333;spacing=7;strokeColor=#5e5e5e;strokeOpacity=100;rounded=1;absoluteArcSize=1;arcSize=7;strokeWidth=2;" vertex="1" parent="1">
            <mxGeometry x="876" y="624" width="96" height="72" as="geometry" />
          </mxCell>
        </UserObject>
        <UserObject label="" lucidchartObjectId="YBQT23nNGYhF" id="KFkNTgGvSqk1yzewDqll-53">
          <mxCell style="html=1;jettySize=18;whiteSpace=wrap;fontSize=11;strokeColor=#5E5E5E;rounded=1;arcSize=12;edgeStyle=orthogonalEdgeStyle;startArrow=none;;endArrow=block;endFill=1;;exitX=1.009;exitY=0.375;exitPerimeter=0;entryX=-0.009;entryY=0.5;entryPerimeter=0;" edge="1" parent="1" source="KFkNTgGvSqk1yzewDqll-11" target="KFkNTgGvSqk1yzewDqll-52">
            <mxGeometry width="100" height="100" relative="1" as="geometry">
              <Array as="points" />
            </mxGeometry>
          </mxCell>
        </UserObject>
        <UserObject label="" lucidchartObjectId="9BQThtj7OCGt" id="KFkNTgGvSqk1yzewDqll-54">
          <mxCell style="html=1;jettySize=18;whiteSpace=wrap;fontSize=11;strokeColor=#5E5E5E;rounded=1;arcSize=12;edgeStyle=orthogonalEdgeStyle;startArrow=none;;endArrow=block;endFill=1;;exitX=0.5;exitY=-0.013;exitPerimeter=0;entryX=0.5;entryY=1.013;entryPerimeter=0;" edge="1" parent="1" source="KFkNTgGvSqk1yzewDqll-51" target="KFkNTgGvSqk1yzewDqll-52">
            <mxGeometry width="100" height="100" relative="1" as="geometry">
              <Array as="points" />
            </mxGeometry>
          </mxCell>
        </UserObject>
        <UserObject label="" lucidchartObjectId="LCQT7Y6buXgX" id="KFkNTgGvSqk1yzewDqll-55">
          <mxCell style="html=1;jettySize=18;whiteSpace=wrap;fontSize=11;strokeColor=#5E5E5E;rounded=1;arcSize=12;edgeStyle=orthogonalEdgeStyle;startArrow=none;;endArrow=block;endFill=1;;exitX=0.125;exitY=-0.012;exitPerimeter=0;entryX=0.5;entryY=1.019;entryPerimeter=0;" edge="1" parent="1" source="KFkNTgGvSqk1yzewDqll-52" target="KFkNTgGvSqk1yzewDqll-56">
            <mxGeometry width="100" height="100" relative="1" as="geometry">
              <Array as="points" />
            </mxGeometry>
          </mxCell>
        </UserObject>
        <UserObject label="u_id" lucidchartObjectId="VCQTKB-y8Vcv" id="KFkNTgGvSqk1yzewDqll-56">
          <mxCell style="html=1;overflow=block;whiteSpace=wrap;rounded=1;arcSize=50;whiteSpace=wrap;fontSize=13;fontColor=#333333;spacing=3;strokeColor=#5e5e5e;strokeOpacity=100;strokeWidth=2;" vertex="1" parent="1">
            <mxGeometry x="792" y="504" width="96" height="48" as="geometry" />
          </mxCell>
        </UserObject>
        <UserObject label="" lucidchartObjectId="~CQTviKzsXlE" id="KFkNTgGvSqk1yzewDqll-57">
          <mxCell style="html=1;jettySize=18;whiteSpace=wrap;fontSize=11;strokeColor=#5E5E5E;rounded=1;arcSize=12;edgeStyle=orthogonalEdgeStyle;startArrow=none;;endArrow=block;endFill=1;;exitX=0.405;exitY=-0.013;exitPerimeter=0;entryX=0.5;entryY=1.019;entryPerimeter=0;" edge="1" parent="1" source="KFkNTgGvSqk1yzewDqll-52" target="KFkNTgGvSqk1yzewDqll-58">
            <mxGeometry width="100" height="100" relative="1" as="geometry">
              <Array as="points" />
            </mxGeometry>
          </mxCell>
        </UserObject>
        <UserObject label="u_name" lucidchartObjectId="iDQTvsDbvHLN" id="KFkNTgGvSqk1yzewDqll-58">
          <mxCell style="html=1;overflow=block;whiteSpace=wrap;rounded=1;arcSize=50;whiteSpace=wrap;fontSize=13;fontColor=#333333;spacing=3;strokeColor=#5e5e5e;strokeOpacity=100;strokeWidth=2;" vertex="1" parent="1">
            <mxGeometry x="840" y="432" width="96" height="48" as="geometry" />
          </mxCell>
        </UserObject>
        <UserObject label="" lucidchartObjectId="vDQT2UZQxjo2" id="KFkNTgGvSqk1yzewDqll-59">
          <mxCell style="html=1;jettySize=18;whiteSpace=wrap;fontSize=11;strokeColor=#5E5E5E;rounded=1;arcSize=12;edgeStyle=orthogonalEdgeStyle;startArrow=none;;endArrow=block;endFill=1;;exitX=0.715;exitY=-0.012;exitPerimeter=0;entryX=0.5;entryY=1.019;entryPerimeter=0;" edge="1" parent="1" source="KFkNTgGvSqk1yzewDqll-52" target="KFkNTgGvSqk1yzewDqll-60">
            <mxGeometry width="100" height="100" relative="1" as="geometry">
              <Array as="points" />
            </mxGeometry>
          </mxCell>
        </UserObject>
        <UserObject label="u_pass" lucidchartObjectId="FDQT8ibHCV~L" id="KFkNTgGvSqk1yzewDqll-60">
          <mxCell style="html=1;overflow=block;whiteSpace=wrap;rounded=1;arcSize=50;whiteSpace=wrap;fontSize=13;fontColor=#333333;spacing=3;strokeColor=#5e5e5e;strokeOpacity=100;strokeWidth=2;" vertex="1" parent="1">
            <mxGeometry x="960" y="516" width="96" height="48" as="geometry" />
          </mxCell>
        </UserObject>
        <UserObject label="mange" lucidchartObjectId="mHQT0zZJ.c.B" id="KFkNTgGvSqk1yzewDqll-61">
          <mxCell style="html=1;overflow=block;whiteSpace=wrap;rhombus;whiteSpace=wrap;fontSize=13;fontColor=#333333;spacing=3;strokeColor=#5e5e5e;strokeOpacity=100;rounded=1;absoluteArcSize=1;arcSize=7;strokeWidth=2;" vertex="1" parent="1">
            <mxGeometry x="444" y="1104" width="96" height="72" as="geometry" />
          </mxCell>
        </UserObject>
        <mxCell id="KFkNTgGvSqk1yzewDqll-62" value="" style="endArrow=classic;html=1;" edge="1" parent="1">
          <mxGeometry width="50" height="50" relative="1" as="geometry">
            <mxPoint x="490" y="990" as="sourcePoint" />
            <mxPoint x="490" y="1100" as="targetPoint" />
          </mxGeometry>
        </mxCell>
        <mxCell id="KFkNTgGvSqk1yzewDqll-63" value="" style="endArrow=classic;html=1;exitX=0.5;exitY=1;exitDx=0;exitDy=0;" edge="1" parent="1" source="KFkNTgGvSqk1yzewDqll-61" target="KFkNTgGvSqk1yzewDqll-64">
          <mxGeometry width="50" height="50" relative="1" as="geometry">
            <mxPoint x="460" y="1250" as="sourcePoint" />
            <mxPoint x="492" y="1280" as="targetPoint" />
          </mxGeometry>
        </mxCell>
        <mxCell id="KFkNTgGvSqk1yzewDqll-78" style="edgeStyle=orthogonalEdgeStyle;rounded=0;orthogonalLoop=1;jettySize=auto;html=1;" edge="1" parent="1" source="KFkNTgGvSqk1yzewDqll-64" target="KFkNTgGvSqk1yzewDqll-79">
          <mxGeometry relative="1" as="geometry">
            <mxPoint x="760" y="1310" as="targetPoint" />
          </mxGeometry>
        </mxCell>
        <mxCell id="KFkNTgGvSqk1yzewDqll-64" value="administer" style="rounded=0;whiteSpace=wrap;html=1;" vertex="1" parent="1">
          <mxGeometry x="432" y="1250" width="120" height="60" as="geometry" />
        </mxCell>
        <mxCell id="KFkNTgGvSqk1yzewDqll-65" value="" style="endArrow=classic;html=1;exitX=0.75;exitY=0;exitDx=0;exitDy=0;" edge="1" parent="1" source="KFkNTgGvSqk1yzewDqll-64">
          <mxGeometry width="50" height="50" relative="1" as="geometry">
            <mxPoint x="510" y="1240" as="sourcePoint" />
            <mxPoint x="606" y="1130" as="targetPoint" />
          </mxGeometry>
        </mxCell>
        <mxCell id="KFkNTgGvSqk1yzewDqll-67" value="" style="endArrow=classic;html=1;exitX=1;exitY=0;exitDx=0;exitDy=0;entryX=0;entryY=0.5;entryDx=0;entryDy=0;" edge="1" parent="1" source="KFkNTgGvSqk1yzewDqll-64">
          <mxGeometry width="50" height="50" relative="1" as="geometry">
            <mxPoint x="550" y="1280" as="sourcePoint" />
            <mxPoint x="624" y="1184.5" as="targetPoint" />
          </mxGeometry>
        </mxCell>
        <mxCell id="KFkNTgGvSqk1yzewDqll-69" value="" style="endArrow=classic;html=1;exitX=1;exitY=0.25;exitDx=0;exitDy=0;" edge="1" parent="1" source="KFkNTgGvSqk1yzewDqll-64">
          <mxGeometry width="50" height="50" relative="1" as="geometry">
            <mxPoint x="550" y="1300" as="sourcePoint" />
            <mxPoint x="630" y="1240" as="targetPoint" />
          </mxGeometry>
        </mxCell>
        <mxCell id="KFkNTgGvSqk1yzewDqll-72" style="edgeStyle=orthogonalEdgeStyle;rounded=0;orthogonalLoop=1;jettySize=auto;html=1;entryX=0;entryY=0.5;entryDx=0;entryDy=0;" edge="1" parent="1" source="KFkNTgGvSqk1yzewDqll-71" target="KFkNTgGvSqk1yzewDqll-64">
          <mxGeometry relative="1" as="geometry" />
        </mxCell>
        <mxCell id="KFkNTgGvSqk1yzewDqll-74" style="edgeStyle=orthogonalEdgeStyle;rounded=0;orthogonalLoop=1;jettySize=auto;html=1;" edge="1" parent="1" source="KFkNTgGvSqk1yzewDqll-71" target="KFkNTgGvSqk1yzewDqll-75">
          <mxGeometry relative="1" as="geometry">
            <mxPoint x="470" y="1420" as="targetPoint" />
            <Array as="points">
              <mxPoint x="240" y="1365" />
              <mxPoint x="270" y="1365" />
            </Array>
          </mxGeometry>
        </mxCell>
        <mxCell id="KFkNTgGvSqk1yzewDqll-71" value="mange" style="rhombus;whiteSpace=wrap;html=1;" vertex="1" parent="1">
          <mxGeometry x="200" y="1240" width="80" height="80" as="geometry" />
        </mxCell>
        <mxCell id="KFkNTgGvSqk1yzewDqll-75" value="result" style="whiteSpace=wrap;html=1;aspect=fixed;" vertex="1" parent="1">
          <mxGeometry x="430" y="1380" width="80" height="80" as="geometry" />
        </mxCell>
        <mxCell id="KFkNTgGvSqk1yzewDqll-80" style="edgeStyle=orthogonalEdgeStyle;rounded=0;orthogonalLoop=1;jettySize=auto;html=1;" edge="1" parent="1" source="KFkNTgGvSqk1yzewDqll-79">
          <mxGeometry relative="1" as="geometry">
            <mxPoint x="940" y="1300" as="targetPoint" />
          </mxGeometry>
        </mxCell>
        <mxCell id="KFkNTgGvSqk1yzewDqll-79" value="mange" style="rhombus;whiteSpace=wrap;html=1;" vertex="1" parent="1">
          <mxGeometry x="720" y="1270" width="80" height="80" as="geometry" />
        </mxCell>
        <mxCell id="KFkNTgGvSqk1yzewDqll-83" style="edgeStyle=orthogonalEdgeStyle;rounded=0;orthogonalLoop=1;jettySize=auto;html=1;" edge="1" parent="1" source="KFkNTgGvSqk1yzewDqll-81">
          <mxGeometry relative="1" as="geometry">
            <mxPoint x="1140" y="1200" as="targetPoint" />
          </mxGeometry>
        </mxCell>
        <mxCell id="KFkNTgGvSqk1yzewDqll-85" style="edgeStyle=orthogonalEdgeStyle;rounded=0;orthogonalLoop=1;jettySize=auto;html=1;" edge="1" parent="1" source="KFkNTgGvSqk1yzewDqll-81">
          <mxGeometry relative="1" as="geometry">
            <mxPoint x="1180" y="1280" as="targetPoint" />
          </mxGeometry>
        </mxCell>
        <mxCell id="KFkNTgGvSqk1yzewDqll-87" style="edgeStyle=orthogonalEdgeStyle;rounded=0;orthogonalLoop=1;jettySize=auto;html=1;" edge="1" parent="1" source="KFkNTgGvSqk1yzewDqll-81">
          <mxGeometry relative="1" as="geometry">
            <mxPoint x="1160" y="1370" as="targetPoint" />
          </mxGeometry>
        </mxCell>
        <mxCell id="KFkNTgGvSqk1yzewDqll-89" style="edgeStyle=orthogonalEdgeStyle;rounded=0;orthogonalLoop=1;jettySize=auto;html=1;entryX=0.5;entryY=0;entryDx=0;entryDy=0;" edge="1" parent="1" source="KFkNTgGvSqk1yzewDqll-81" target="KFkNTgGvSqk1yzewDqll-90">
          <mxGeometry relative="1" as="geometry">
            <mxPoint x="996" y="1440" as="targetPoint" />
          </mxGeometry>
        </mxCell>
        <mxCell id="KFkNTgGvSqk1yzewDqll-81" value="exam" style="rounded=0;whiteSpace=wrap;html=1;" vertex="1" parent="1">
          <mxGeometry x="936" y="1200" width="120" height="170" as="geometry" />
        </mxCell>
        <mxCell id="KFkNTgGvSqk1yzewDqll-84" value="sub_name" style="whiteSpace=wrap;html=1;" vertex="1" parent="1">
          <mxGeometry x="1110" y="1170" width="120" height="60" as="geometry" />
        </mxCell>
        <mxCell id="KFkNTgGvSqk1yzewDqll-86" value="sub_id" style="whiteSpace=wrap;html=1;" vertex="1" parent="1">
          <mxGeometry x="1150" y="1250" width="120" height="60" as="geometry" />
        </mxCell>
        <mxCell id="KFkNTgGvSqk1yzewDqll-88" value="sub_subject" style="whiteSpace=wrap;html=1;" vertex="1" parent="1">
          <mxGeometry x="1130" y="1340" width="120" height="60" as="geometry" />
        </mxCell>
        <mxCell id="KFkNTgGvSqk1yzewDqll-93" style="edgeStyle=orthogonalEdgeStyle;rounded=0;orthogonalLoop=1;jettySize=auto;html=1;" edge="1" parent="1" source="KFkNTgGvSqk1yzewDqll-90">
          <mxGeometry relative="1" as="geometry">
            <mxPoint x="996" y="1650" as="targetPoint" />
          </mxGeometry>
        </mxCell>
        <mxCell id="KFkNTgGvSqk1yzewDqll-90" value="has" style="rhombus;whiteSpace=wrap;html=1;" vertex="1" parent="1">
          <mxGeometry x="956" y="1480" width="80" height="80" as="geometry" />
        </mxCell>
        <mxCell id="KFkNTgGvSqk1yzewDqll-95" style="edgeStyle=orthogonalEdgeStyle;rounded=0;orthogonalLoop=1;jettySize=auto;html=1;" edge="1" parent="1" source="KFkNTgGvSqk1yzewDqll-94">
          <mxGeometry relative="1" as="geometry">
            <mxPoint x="1000" y="1780" as="targetPoint" />
          </mxGeometry>
        </mxCell>
        <mxCell id="KFkNTgGvSqk1yzewDqll-97" style="edgeStyle=orthogonalEdgeStyle;rounded=0;orthogonalLoop=1;jettySize=auto;html=1;" edge="1" parent="1" source="KFkNTgGvSqk1yzewDqll-94">
          <mxGeometry relative="1" as="geometry">
            <mxPoint x="1210" y="1550" as="targetPoint" />
            <Array as="points">
              <mxPoint x="1100" y="1670" />
              <mxPoint x="1100" y="1560" />
              <mxPoint x="1190" y="1560" />
            </Array>
          </mxGeometry>
        </mxCell>
        <mxCell id="KFkNTgGvSqk1yzewDqll-99" style="edgeStyle=orthogonalEdgeStyle;rounded=0;orthogonalLoop=1;jettySize=auto;html=1;" edge="1" parent="1" source="KFkNTgGvSqk1yzewDqll-94">
          <mxGeometry relative="1" as="geometry">
            <mxPoint x="1180" y="1640" as="targetPoint" />
          </mxGeometry>
        </mxCell>
        <mxCell id="KFkNTgGvSqk1yzewDqll-107" style="edgeStyle=orthogonalEdgeStyle;rounded=0;orthogonalLoop=1;jettySize=auto;html=1;" edge="1" parent="1" source="KFkNTgGvSqk1yzewDqll-94">
          <mxGeometry relative="1" as="geometry">
            <mxPoint x="1210" y="1730" as="targetPoint" />
            <Array as="points">
              <mxPoint x="1130" y="1670" />
              <mxPoint x="1130" y="1730" />
              <mxPoint x="1200" y="1730" />
            </Array>
          </mxGeometry>
        </mxCell>
        <mxCell id="KFkNTgGvSqk1yzewDqll-94" value="subject" style="whiteSpace=wrap;html=1;" vertex="1" parent="1">
          <mxGeometry x="940" y="1640" width="120" height="60" as="geometry" />
        </mxCell>
        <mxCell id="KFkNTgGvSqk1yzewDqll-110" style="edgeStyle=orthogonalEdgeStyle;rounded=0;orthogonalLoop=1;jettySize=auto;html=1;" edge="1" parent="1" source="KFkNTgGvSqk1yzewDqll-96">
          <mxGeometry relative="1" as="geometry">
            <mxPoint x="1000" y="1910" as="targetPoint" />
          </mxGeometry>
        </mxCell>
        <mxCell id="KFkNTgGvSqk1yzewDqll-96" value="has" style="rhombus;whiteSpace=wrap;html=1;" vertex="1" parent="1">
          <mxGeometry x="960" y="1760" width="80" height="80" as="geometry" />
        </mxCell>
        <mxCell id="KFkNTgGvSqk1yzewDqll-102" value="ad_id" style="ellipse;whiteSpace=wrap;html=1;" vertex="1" parent="1">
          <mxGeometry x="560" y="1070" width="120" height="60" as="geometry" />
        </mxCell>
        <mxCell id="KFkNTgGvSqk1yzewDqll-103" value="ad_log name" style="ellipse;whiteSpace=wrap;html=1;" vertex="1" parent="1">
          <mxGeometry x="624" y="1160" width="86" height="40" as="geometry" />
        </mxCell>
        <mxCell id="KFkNTgGvSqk1yzewDqll-104" value="ad_pass" style="ellipse;whiteSpace=wrap;html=1;" vertex="1" parent="1">
          <mxGeometry x="630" y="1220" width="120" height="40" as="geometry" />
        </mxCell>
        <mxCell id="KFkNTgGvSqk1yzewDqll-106" value="sub_id" style="ellipse;whiteSpace=wrap;html=1;" vertex="1" parent="1">
          <mxGeometry x="1180" y="1610" width="80" height="50" as="geometry" />
        </mxCell>
        <mxCell id="KFkNTgGvSqk1yzewDqll-108" value="sub_scan" style="ellipse;whiteSpace=wrap;html=1;" vertex="1" parent="1">
          <mxGeometry x="1160" y="1690" width="120" height="80" as="geometry" />
        </mxCell>
        <mxCell id="KFkNTgGvSqk1yzewDqll-109" value="sub_name" style="ellipse;whiteSpace=wrap;html=1;" vertex="1" parent="1">
          <mxGeometry x="1160" y="1500" width="120" height="80" as="geometry" />
        </mxCell>
        <mxCell id="KFkNTgGvSqk1yzewDqll-113" value="" style="edgeStyle=orthogonalEdgeStyle;rounded=0;orthogonalLoop=1;jettySize=auto;html=1;" edge="1" parent="1" source="KFkNTgGvSqk1yzewDqll-111" target="KFkNTgGvSqk1yzewDqll-112">
          <mxGeometry relative="1" as="geometry" />
        </mxCell>
        <mxCell id="KFkNTgGvSqk1yzewDqll-114" style="edgeStyle=orthogonalEdgeStyle;rounded=0;orthogonalLoop=1;jettySize=auto;html=1;" edge="1" parent="1" source="KFkNTgGvSqk1yzewDqll-111">
          <mxGeometry relative="1" as="geometry">
            <mxPoint x="1380" y="1930" as="targetPoint" />
          </mxGeometry>
        </mxCell>
        <mxCell id="KFkNTgGvSqk1yzewDqll-117" style="edgeStyle=orthogonalEdgeStyle;rounded=0;orthogonalLoop=1;jettySize=auto;html=1;" edge="1" parent="1" source="KFkNTgGvSqk1yzewDqll-111">
          <mxGeometry relative="1" as="geometry">
            <mxPoint x="1310" y="2000" as="targetPoint" />
            <Array as="points">
              <mxPoint x="1080" y="1940" />
              <mxPoint x="1080" y="1990" />
              <mxPoint x="1250" y="1990" />
              <mxPoint x="1250" y="2000" />
            </Array>
          </mxGeometry>
        </mxCell>
        <mxCell id="KFkNTgGvSqk1yzewDqll-119" style="edgeStyle=orthogonalEdgeStyle;rounded=0;orthogonalLoop=1;jettySize=auto;html=1;" edge="1" parent="1" source="KFkNTgGvSqk1yzewDqll-111">
          <mxGeometry relative="1" as="geometry">
            <mxPoint x="870" y="1940" as="targetPoint" />
          </mxGeometry>
        </mxCell>
        <mxCell id="KFkNTgGvSqk1yzewDqll-111" value="question" style="whiteSpace=wrap;html=1;" vertex="1" parent="1">
          <mxGeometry x="940" y="1910" width="120" height="60" as="geometry" />
        </mxCell>
        <mxCell id="KFkNTgGvSqk1yzewDqll-112" value="q_id" style="ellipse;whiteSpace=wrap;html=1;" vertex="1" parent="1">
          <mxGeometry x="1160" y="1860" width="110" height="40" as="geometry" />
        </mxCell>
        <mxCell id="KFkNTgGvSqk1yzewDqll-115" value="q_no" style="ellipse;whiteSpace=wrap;html=1;" vertex="1" parent="1">
          <mxGeometry x="1340" y="1880" width="120" height="80" as="geometry" />
        </mxCell>
        <mxCell id="KFkNTgGvSqk1yzewDqll-118" value="q_ptioens" style="ellipse;whiteSpace=wrap;html=1;" vertex="1" parent="1">
          <mxGeometry x="1270" y="1960" width="120" height="80" as="geometry" />
        </mxCell>
        <mxCell id="KFkNTgGvSqk1yzewDqll-121" style="edgeStyle=orthogonalEdgeStyle;rounded=0;orthogonalLoop=1;jettySize=auto;html=1;" edge="1" parent="1" source="KFkNTgGvSqk1yzewDqll-120">
          <mxGeometry relative="1" as="geometry">
            <mxPoint x="660" y="1940" as="targetPoint" />
          </mxGeometry>
        </mxCell>
        <mxCell id="KFkNTgGvSqk1yzewDqll-120" value="storedin" style="rhombus;whiteSpace=wrap;html=1;" vertex="1" parent="1">
          <mxGeometry x="800" y="1900" width="80" height="80" as="geometry" />
        </mxCell>
        <mxCell id="KFkNTgGvSqk1yzewDqll-123" style="edgeStyle=orthogonalEdgeStyle;rounded=0;orthogonalLoop=1;jettySize=auto;html=1;" edge="1" parent="1" source="KFkNTgGvSqk1yzewDqll-122">
          <mxGeometry relative="1" as="geometry">
            <mxPoint x="400" y="1930" as="targetPoint" />
          </mxGeometry>
        </mxCell>
        <mxCell id="KFkNTgGvSqk1yzewDqll-122" value="answer" style="whiteSpace=wrap;html=1;" vertex="1" parent="1">
          <mxGeometry x="570" y="1910" width="120" height="60" as="geometry" />
        </mxCell>
        <mxCell id="KFkNTgGvSqk1yzewDqll-126" style="edgeStyle=orthogonalEdgeStyle;rounded=0;orthogonalLoop=1;jettySize=auto;html=1;" edge="1" parent="1" source="KFkNTgGvSqk1yzewDqll-125">
          <mxGeometry relative="1" as="geometry">
            <mxPoint x="390" y="1830" as="targetPoint" />
          </mxGeometry>
        </mxCell>
        <mxCell id="KFkNTgGvSqk1yzewDqll-125" value="checks" style="rhombus;whiteSpace=wrap;html=1;" vertex="1" parent="1">
          <mxGeometry x="350" y="1890" width="80" height="80" as="geometry" />
        </mxCell>
        <mxCell id="KFkNTgGvSqk1yzewDqll-128" style="edgeStyle=orthogonalEdgeStyle;rounded=0;orthogonalLoop=1;jettySize=auto;html=1;" edge="1" parent="1" source="KFkNTgGvSqk1yzewDqll-127">
          <mxGeometry relative="1" as="geometry">
            <mxPoint x="390" y="1690" as="targetPoint" />
          </mxGeometry>
        </mxCell>
        <mxCell id="KFkNTgGvSqk1yzewDqll-127" value="marks" style="whiteSpace=wrap;html=1;" vertex="1" parent="1">
          <mxGeometry x="330" y="1770" width="120" height="60" as="geometry" />
        </mxCell>
        <mxCell id="KFkNTgGvSqk1yzewDqll-130" style="edgeStyle=orthogonalEdgeStyle;rounded=0;orthogonalLoop=1;jettySize=auto;html=1;entryX=0.5;entryY=1;entryDx=0;entryDy=0;" edge="1" parent="1" source="KFkNTgGvSqk1yzewDqll-129" target="KFkNTgGvSqk1yzewDqll-75">
          <mxGeometry relative="1" as="geometry">
            <mxPoint x="410" y="1480" as="targetPoint" />
            <Array as="points">
              <mxPoint x="380" y="1555" />
              <mxPoint x="470" y="1555" />
            </Array>
          </mxGeometry>
        </mxCell>
        <mxCell id="KFkNTgGvSqk1yzewDqll-129" value="gene rate&lt;br&gt;result" style="rhombus;whiteSpace=wrap;html=1;" vertex="1" parent="1">
          <mxGeometry x="340" y="1630" width="80" height="60" as="geometry" />
        </mxCell>
      </root>
    </mxGraphModel>
  </diagram>
</mxfile>
